<svg width="24" height="24" viewBox="0 0 24 24" version="1.1" xmlns="http://www.w3.org/2000/svg" xmlns:xlink="http://www.w3.org/1999/xlink">
<g id="Canvas" fill="none">
<g id="exButton">
<path fill-rule="evenodd" clip-rule="evenodd" d="M 22 12C 22 17.5228 17.5229 22 12 22C 6.47714 22 2 17.5228 2 12C 2 6.47716 6.47714 2 12 2C 17.5229 2 22 6.47716 22 12ZM 24 12C 24 18.6274 18.6274 24 12 24C 5.37259 24 0 18.6274 0 12C 0 5.37259 5.37259 0 12 0C 18.6274 0 24 5.37259 24 12ZM 6.34317 7.75735L 7.75739 6.34314L 12 10.5858L 16.2427 6.34315L 17.6569 7.75737L 13.4142 12L 17.6569 16.2426L 16.2427 17.6568L 12 13.4142L 7.75739 17.6569L 6.34317 16.2426L 10.5858 12L 6.34317 7.75735Z" fill="#104FA4"/>
</g>
</g>
</svg>

